<?xml version="1.0" encoding="UTF-8"?>
<svg id="Layer_2" data-name="Layer 2" xmlns="http://www.w3.org/2000/svg" viewBox="0 0 998.35 696.05">
  <defs>
    <style>
      .cls-1, .cls-2, .cls-3, .cls-4, .cls-5, .cls-6, .cls-7, .cls-8, .cls-9 {
        fill: none;
        stroke: #010101;
      }

      .cls-1, .cls-3 {
        stroke-width: 1.5px;
      }

      .cls-1, .cls-5, .cls-7 {
        stroke-linecap: square;
      }

      .cls-10, .cls-11, .cls-12, .cls-13, .cls-14 {
        fill: #010101;
      }

      .cls-11 {
        font-size: 13px;
      }

      .cls-11, .cls-12, .cls-13, .cls-14 {
        isolation: isolate;
      }

      .cls-11, .cls-13 {
        font-family: CourierNewPS-BoldMT, 'Courier New';
        font-weight: 700;
      }

      .cls-15 {
        fill: #a0caeb;
      }

      .cls-15, .cls-16 {
        opacity: .13;
      }

      .cls-17 {
        fill: #da3a32;
        opacity: .1;
      }

      .cls-2, .cls-9 {
        stroke-width: .6px;
      }

      .cls-16 {
        fill: #875ba0;
      }

      .cls-4 {
        stroke-width: .5px;
      }

      .cls-12 {
        font-size: 8px;
      }

      .cls-12, .cls-14 {
        font-family: CourierNewPSMT, 'Courier New';
      }

      .cls-5 {
        stroke-width: 2.5px;
      }

      .cls-13 {
        font-size: 10px;
      }

      .cls-18 {
        letter-spacing: -.03em;
      }

      .cls-19 {
        letter-spacing: 0em;
      }

      .cls-20 {
        letter-spacing: 0em;
      }

      .cls-21 {
        letter-spacing: -.01em;
      }

      .cls-22 {
        letter-spacing: 0em;
      }

      .cls-23 {
        letter-spacing: .02em;
      }

      .cls-24 {
        fill: #221f20;
        font-family: MyriadPro-Regular, 'Myriad Pro';
        font-size: 12px;
      }

      .cls-8 {
        stroke-dasharray: 5 3;
        stroke-width: .7px;
      }

      .cls-14 {
        font-size: 9px;
      }

      .cls-9 {
        stroke-dasharray: 4 3;
      }
    </style>
  </defs>
  <g id="Layer_1-2" data-name="Layer 1">
    <text class="cls-11" transform="translate(67.07 10.35)"><tspan x="0" y="0">01-MAIN LEVEL — FLOOR PLAN (INTERIOR FRAMING)</tspan></text>
    <text class="cls-12" transform="translate(67.07 23.35)"><tspan x="0" y="0">SCALE: 3px = 1&quot; | FLIPPED HORIZONTAL FROM ORIGINAL | ALL DIMS INTERIOR FRAMING</tspan></text>
    <text class="cls-13" transform="translate(834.07 23.35)"><tspan x="0" y="0">N</tspan></text>
    <line class="cls-1" x1="837.07" y1="27.35" x2="837.07" y2="10.35"/>
    <polygon class="cls-10" points="837.07 7.35 833.07 15.35 837.07 13.35 841.07 15.35 837.07 7.35"/>
    <line class="cls-5" x1="67.07" y1="35.35" x2="450.07" y2="35.35"/>
    <line class="cls-5" x1="567.07" y1="35.35" x2="974.07" y2="35.35"/>
    <line class="cls-7" x1="67.07" y1="58.35" x2="450.07" y2="58.35"/>
    <line class="cls-7" x1="567.07" y1="58.35" x2="974.07" y2="58.35"/>
    <line class="cls-5" x1="67.07" y1="35.35" x2="67.07" y2="58.35"/>
    <line class="cls-5" x1="974.07" y1="35.35" x2="974.07" y2="58.35"/>
    <line class="cls-7" x1="450.07" y1="35.35" x2="450.07" y2="58.35"/>
    <line class="cls-7" x1="567.07" y1="35.35" x2="567.07" y2="58.35"/>
    <line class="cls-2" x1="79.07" y1="35.35" x2="67.07" y2="47.35"/>
    <line class="cls-2" x1="91.07" y1="35.35" x2="67.07" y2="59.35"/>
    <line class="cls-2" x1="115.07" y1="35.35" x2="91.07" y2="59.35"/>
    <line class="cls-2" x1="139.07" y1="35.35" x2="115.07" y2="59.35"/>
    <line class="cls-2" x1="163.07" y1="35.35" x2="139.07" y2="59.35"/>
    <line class="cls-2" x1="187.07" y1="35.35" x2="163.07" y2="59.35"/>
    <line class="cls-2" x1="211.07" y1="35.35" x2="187.07" y2="59.35"/>
    <line class="cls-2" x1="235.07" y1="35.35" x2="211.07" y2="59.35"/>
    <line class="cls-2" x1="259.07" y1="35.35" x2="235.07" y2="59.35"/>
    <line class="cls-2" x1="283.07" y1="35.35" x2="259.07" y2="59.35"/>
    <line class="cls-2" x1="307.07" y1="35.35" x2="283.07" y2="59.35"/>
    <line class="cls-2" x1="331.07" y1="35.35" x2="307.07" y2="59.35"/>
    <line class="cls-2" x1="355.07" y1="35.35" x2="331.07" y2="59.35"/>
    <line class="cls-2" x1="379.07" y1="35.35" x2="355.07" y2="59.35"/>
    <line class="cls-2" x1="403.07" y1="35.35" x2="379.07" y2="59.35"/>
    <line class="cls-2" x1="427.07" y1="35.35" x2="403.07" y2="59.35"/>
    <line class="cls-2" x1="450.07" y1="35.35" x2="427.07" y2="59.35"/>
    <line class="cls-2" x1="579.07" y1="35.35" x2="567.07" y2="47.35"/>
    <line class="cls-2" x1="591.07" y1="35.35" x2="567.07" y2="59.35"/>
    <line class="cls-2" x1="615.07" y1="35.35" x2="591.07" y2="59.35"/>
    <line class="cls-2" x1="639.07" y1="35.35" x2="615.07" y2="59.35"/>
    <line class="cls-2" x1="663.07" y1="35.35" x2="639.07" y2="59.35"/>
    <line class="cls-2" x1="687.07" y1="35.35" x2="663.07" y2="59.35"/>
    <line class="cls-2" x1="711.07" y1="35.35" x2="687.07" y2="59.35"/>
    <line class="cls-2" x1="735.07" y1="35.35" x2="711.07" y2="59.35"/>
    <line class="cls-2" x1="759.07" y1="35.35" x2="735.07" y2="59.35"/>
    <line class="cls-2" x1="783.07" y1="35.35" x2="759.07" y2="59.35"/>
    <line class="cls-2" x1="807.07" y1="35.35" x2="783.07" y2="59.35"/>
    <line class="cls-2" x1="831.07" y1="35.35" x2="807.07" y2="59.35"/>
    <line class="cls-2" x1="855.07" y1="35.35" x2="831.07" y2="59.35"/>
    <line class="cls-2" x1="879.07" y1="35.35" x2="855.07" y2="59.35"/>
    <line class="cls-2" x1="903.07" y1="35.35" x2="879.07" y2="59.35"/>
    <line class="cls-2" x1="927.07" y1="35.35" x2="903.07" y2="59.35"/>
    <line class="cls-2" x1="951.07" y1="35.35" x2="927.07" y2="59.35"/>
    <line class="cls-2" x1="974.07" y1="35.35" x2="951.07" y2="59.35"/>
    <line class="cls-7" x1="67.07" y1="560.35" x2="456.61" y2="560.35"/>
    <line class="cls-7" x1="546.61" y1="560.35" x2="974.07" y2="560.35"/>
    <line class="cls-5" x1="65.73" y1="583.35" x2="972.73" y2="583.35"/>
    <line class="cls-5" x1="67.07" y1="560.35" x2="67.07" y2="583.35"/>
    <line class="cls-5" x1="974.07" y1="560.35" x2="974.07" y2="583.35"/>
    <line class="cls-7" x1="456.61" y1="560.35" x2="456.61" y2="583.35"/>
    <line class="cls-7" x1="546.61" y1="560.35" x2="546.61" y2="583.35"/>
    <line class="cls-3" x1="456.61" y1="564.35" x2="546.61" y2="564.35"/>
    <line class="cls-3" x1="456.61" y1="579.35" x2="546.61" y2="579.35"/>
    <line class="cls-2" x1="91.07" y1="560.35" x2="67.07" y2="583.35"/>
    <line class="cls-2" x1="115.07" y1="560.35" x2="91.07" y2="583.35"/>
    <line class="cls-2" x1="163.07" y1="560.35" x2="139.07" y2="583.35"/>
    <line class="cls-2" x1="211.07" y1="560.35" x2="187.07" y2="583.35"/>
    <line class="cls-2" x1="259.07" y1="560.35" x2="235.07" y2="583.35"/>
    <line class="cls-2" x1="307.07" y1="560.35" x2="283.07" y2="583.35"/>
    <line class="cls-2" x1="355.07" y1="560.35" x2="331.07" y2="583.35"/>
    <line class="cls-2" x1="403.07" y1="560.35" x2="379.07" y2="583.35"/>
    <line class="cls-2" x1="451.07" y1="560.35" x2="427.07" y2="583.35"/>
    <line class="cls-2" x1="403.61" y1="560.35" x2="379.61" y2="583.35"/>
    <line class="cls-2" x1="451.61" y1="560.35" x2="427.61" y2="583.35"/>
    <line class="cls-2" x1="559.61" y1="560.35" x2="547.61" y2="572.35"/>
    <line class="cls-2" x1="601.98" y1="560.35" x2="577.98" y2="583.35"/>
    <line class="cls-2" x1="652.02" y1="560.35" x2="628.02" y2="583.35"/>
    <line class="cls-2" x1="715.07" y1="560.35" x2="689.98" y2="582.92"/>
    <line class="cls-2" x1="763.07" y1="560.35" x2="739.07" y2="583.35"/>
    <line class="cls-2" x1="811.07" y1="560.35" x2="787.07" y2="583.35"/>
    <line class="cls-2" x1="859.07" y1="560.35" x2="835.07" y2="583.35"/>
    <line class="cls-2" x1="907.07" y1="560.35" x2="883.07" y2="583.35"/>
    <line class="cls-2" x1="955.07" y1="560.35" x2="931.07" y2="583.35"/>
    <line class="cls-2" x1="974.07" y1="565.35" x2="962.07" y2="583.35"/>
    <line class="cls-5" x1="67.07" y1="58.35" x2="67.07" y2="127.35"/>
    <line class="cls-5" x1="67.07" y1="343.35" x2="67.07" y2="560.35"/>
    <line class="cls-7" x1="90.07" y1="58.35" x2="90.07" y2="127.35"/>
    <line class="cls-7" x1="90.07" y1="343.35" x2="90.07" y2="560.35"/>
    <line class="cls-7" x1="67.07" y1="127.35" x2="90.07" y2="127.35"/>
    <line class="cls-7" x1="67.07" y1="343.35" x2="90.07" y2="343.35"/>
    <line class="cls-3" x1="71.07" y1="127.35" x2="71.07" y2="343.35"/>
    <line class="cls-3" x1="86.07" y1="127.35" x2="86.07" y2="343.35"/>
    <line class="cls-2" x1="67.07" y1="70.35" x2="79.07" y2="58.35"/>
    <line class="cls-2" x1="67.07" y1="94.35" x2="90.07" y2="71.35"/>
    <line class="cls-2" x1="67.07" y1="118.35" x2="90.07" y2="95.35"/>
    <line class="cls-2" x1="67.07" y1="127.35" x2="90.07" y2="119.35"/>
    <line class="cls-2" x1="67.07" y1="355.35" x2="90.07" y2="343.35"/>
    <line class="cls-2" x1="67.07" y1="379.35" x2="90.07" y2="367.35"/>
    <line class="cls-2" x1="67.07" y1="403.35" x2="90.07" y2="391.35"/>
    <line class="cls-2" x1="67.07" y1="427.35" x2="90.07" y2="415.35"/>
    <line class="cls-2" x1="67.07" y1="451.35" x2="90.07" y2="439.35"/>
    <line class="cls-2" x1="67.07" y1="475.35" x2="90.07" y2="463.35"/>
    <line class="cls-2" x1="67.07" y1="499.35" x2="90.07" y2="487.35"/>
    <line class="cls-2" x1="67.07" y1="523.35" x2="90.07" y2="511.35"/>
    <line class="cls-2" x1="67.07" y1="547.35" x2="90.07" y2="535.35"/>
    <line class="cls-2" x1="67.07" y1="560.35" x2="90.07" y2="559.35"/>
    <line class="cls-7" x1="951.07" y1="416.35" x2="951.07" y2="560.35"/>
    <line class="cls-7" x1="951.07" y1="58.35" x2="951.07" y2="179.35"/>
    <line class="cls-5" x1="974.07" y1="416.35" x2="974.07" y2="560.35"/>
    <line class="cls-5" x1="974.07" y1="58.35" x2="974.07" y2="179.35"/>
    <line class="cls-7" x1="974.07" y1="416.35" x2="951.07" y2="416.35"/>
    <line class="cls-7" x1="974.07" y1="179.35" x2="951.07" y2="179.35"/>
    <line class="cls-3" x1="954.07" y1="179.35" x2="954.07" y2="416.35"/>
    <line class="cls-3" x1="971.07" y1="179.35" x2="971.07" y2="416.35"/>
    <line class="cls-9" x1="962.07" y1="179.35" x2="962.07" y2="416.35"/>
    <line class="cls-2" x1="963.07" y1="560.35" x2="951.07" y2="548.35"/>
    <line class="cls-2" x1="974.07" y1="547.35" x2="951.07" y2="524.35"/>
    <line class="cls-2" x1="974.07" y1="523.35" x2="951.07" y2="500.35"/>
    <line class="cls-2" x1="974.07" y1="499.35" x2="951.07" y2="476.35"/>
    <line class="cls-2" x1="974.07" y1="475.35" x2="951.07" y2="452.35"/>
    <line class="cls-2" x1="974.07" y1="451.35" x2="951.07" y2="428.35"/>
    <line class="cls-2" x1="974.07" y1="427.35" x2="951.07" y2="416.35"/>
    <line class="cls-2" x1="974.07" y1="179.35" x2="951.07" y2="167.35"/>
    <line class="cls-2" x1="974.07" y1="155.35" x2="951.07" y2="143.35"/>
    <line class="cls-2" x1="974.07" y1="131.35" x2="951.07" y2="119.35"/>
    <line class="cls-2" x1="974.07" y1="107.35" x2="951.07" y2="95.35"/>
    <line class="cls-2" x1="974.07" y1="83.35" x2="951.07" y2="71.35"/>
    <line class="cls-2" x1="951.07" y1="560.35" x2="974.07" y2="559.35"/>
    <line class="cls-6" x1="567.07" y1="175.35" x2="567.07" y2="58.35"/>
    <path class="cls-8" d="M450.07,58.35c64.62,0,117,52.38,117,117"/>
    <line class="cls-6" x1="445.03" y1="526.57" x2="328.03" y2="526.57"/>
    <path class="cls-8" d="M328.03,643.57c0-64.62,52.38-117,117-117"/>
    <line class="cls-4" x1="67.07" y1="615.35" x2="974.07" y2="615.35"/>
    <line class="cls-4" x1="67.07" y1="609.35" x2="67.07" y2="621.35"/>
    <line class="cls-4" x1="974.07" y1="609.35" x2="974.07" y2="621.35"/>
    <text class="cls-14" transform="translate(442.26 629.35)"><tspan x="0" y="0">287&quot; (23&apos;-11&quot;) EXTERIOR WIDTH</tspan></text>
    <line class="cls-4" x1="11.07" y1="35.35" x2="23.07" y2="35.35"/>
    <text class="cls-14" transform="translate(7.07 404.47) rotate(-90)"><tspan x="0" y="0">167.375&quot; (13&apos;-11&quot;) EXTERIOR DEPTH</tspan></text>
    <text class="cls-12" transform="translate(508.07 29.35)"><tspan x="0" y="0">NORTH</tspan></text>
    <text class="cls-12" transform="translate(412.61 597.35)"><tspan x="0" y="0">SOUTH</tspan></text>
    <text class="cls-12" transform="translate(47.07 324.96) rotate(-90)"><tspan x="0" y="0">WEST</tspan></text>
    <text class="cls-12" transform="translate(992.06 312.95) rotate(-90) scale(1 -1)"><tspan x="0" y="0">EAST</tspan></text>
    <text class="cls-12" transform="translate(537.87 51.35) rotate(-180) scale(1 -1)"><tspan x="0" y="0">DOOR 3&apos;×6&apos;8&quot;</tspan></text>
    <text class="cls-12" transform="translate(475.21 593.35)"><tspan x="0" y="0">WIN 2&apos;6&quot;×4&apos;</tspan></text>
    <text class="cls-12" transform="translate(47.07 260.96) rotate(-90)"><tspan x="0" y="0">WIN 6&apos;×4&apos;</tspan></text>
    <text class="cls-12" transform="translate(992.06 348.55) rotate(-90) scale(1 -1)"><tspan x="0" y="0">SLIDING DOOR 6&apos;7&quot;×5&apos;11&quot;</tspan></text>
    <path class="cls-10" d="M432.91,80.62v106.6h-88.6v-106.6h88.6M433.61,79.92h-90v108h90v-108h0Z"/>
    <path class="cls-10" d="M562.62,428.55v107.25h-105.87v-107.25h105.87M563.32,427.85h-107.27v108.65h107.27v-108.65h0Z"/>
    <path class="cls-10" d="M944.26,428.55v107.25h-88.24v-107.25h88.24M944.96,427.85h-89.64v108.65h89.64v-108.65h0Z"/>
    <path class="cls-10" d="M434.45,80.55h15.28s0,73.6,0,73.6h-15.28v-73.6M433.75,79.85v75s16.68,0,16.68,0v-75s-16.68,0-16.68,0h0Z"/>
    <path class="cls-10" d="M449.8,62.55v16.6H94.31v-16.6h355.5M450.5,61.85H93.61v18h356.9v-18h0Z"/>
    <path class="cls-10" d="M449.81,59.56v1.6h-1.6v-1.6h1.6M450.51,58.86h-3v3h3v-3h0Z"/>
    <path class="cls-10" d="M110.85,80.42v457.92h-16.6V80.42h16.6M111.55,79.72h-18v459.32h18V79.72h0Z"/>
    <path class="cls-10" d="M92.86,80.41v1.6h-1.6v-1.6h1.6M93.56,79.71h-3v3h3v-3h0Z"/>
    <path class="cls-10" d="M94.17,539.61h852.38v16.6H94.17v-16.6M93.47,538.91v18h853.78s0-18,0-18H93.47Z"/>
    <path class="cls-10" d="M95.76,557.61v1.6h-1.6v-1.6h1.6M96.46,556.91h-3v3h3v-3h0Z"/>
    <path class="cls-10" d="M117.75,371.85v10.6h-4.6v-10.6h4.6M118.45,371.16h-6v12h6v-12h0Z"/>
    <path class="cls-10" d="M165.73,371.85v10.6h-4.6v-10.6h4.6M166.43,371.16h-6v12h6v-12h0Z"/>
    <path class="cls-10" d="M213.72,371.85v10.6h-4.6v-10.6h4.6M214.42,371.16h-6v12h6v-12h0Z"/>
    <path class="cls-10" d="M261.71,371.85v10.6h-4.6v-10.6h4.6M262.41,371.16h-6v12h6v-12h0Z"/>
    <path class="cls-10" d="M309.69,371.85v10.6h-4.6v-10.6h4.6M310.39,371.16h-6v12h6v-12h0Z"/>
    <path class="cls-10" d="M357.68,371.85v10.6h-4.6v-10.6h4.6M358.38,371.16h-6v12h6v-12h0Z"/>
    <path class="cls-10" d="M405.66,371.85v10.6h-4.6v-10.6h4.6M406.36,371.16h-6v12h6v-12h0Z"/>
    <path class="cls-10" d="M453.65,371.85v10.6h-4.6v-10.6h4.6M454.35,371.16h-6v12h6v-12h0Z"/>
    <path class="cls-10" d="M454.65,386.17v4.6h-10.6v-4.6h10.6M455.35,385.47h-12v6h12v-6h0Z"/>
    <path class="cls-10" d="M454.65,434.5v4.6h-10.6v-4.6h10.6M455.35,433.8h-12v6h12v-6h0Z"/>
    <path class="cls-10" d="M454.65,527.61v4.6h-10.6v-4.6h10.6M455.35,526.91h-12v6h12v-6h0Z"/>
    <path class="cls-10" d="M113.27,81.68h228.26s0,73.6,0,73.6h-153.96s-.7,0-.7,0v70.91s0,70.21,0,70.21v.7h267.66s0,73.6,0,73.6H113.27s0-144.51,0-144.51V81.68M112.61,80.98h-.05v145.22s0,145.22,0,145.22h342.66s0-75,0-75H187.57s0-70.21,0-70.21v-70.21s154.66,0,154.66,0v-75s-229.62,0-229.62,0h0Z"/>
    <path class="cls-10" d="M296.42,386.57c16.16,0,29.3,13.14,29.3,29.3v30c0,16.16-13.14,29.3-29.3,29.3s-29.3-13.14-29.3-29.3v-30c0-16.16,13.14-29.3,29.3-29.3M296.42,385.87c-16.57,0-30,13.43-30,30v30c0,16.57,13.43,30,30,30s30-13.43,30-30v-30c0-16.57-13.43-30-30-30h0Z"/>
    <path class="cls-10" d="M454.65,383.98v.42H113.13v-.42h341.51M455.35,383.28H112.43v1.82h342.91v-1.82h0Z"/>
    <path class="cls-10" d="M425.59,385.44v46.6h-52.6v-46.6h52.6M426.29,384.74h-54v48h54v-48h0Z"/>
    <path class="cls-10" d="M289.14,308.44v46.6h-52.6v-46.6h52.6M289.84,307.74h-54v48h54v-48h0Z"/>
    <path class="cls-10" d="M346.3,308.44v46.6h-52.6v-46.6h52.6M347,307.74h-54v48h54v-48h0Z"/>
    <path class="cls-10" d="M454.65,386.17v52.7h-10.6v-52.7h10.6M455.35,385.47h-12v54.1h12v-54.1h0Z"/>
    <path class="cls-10" d="M211.44,385.87v151.17h-99.75v-151.17h99.75M212.14,385.17h-101.15v152.57h101.15v-152.57h0Z"/>
    <line class="cls-8" x1="455.01" y1="537.65" x2="455.01" y2="439.6"/>
    <rect class="cls-8" x="454.95" y="402.76" width="108" height="30"/>
    <rect class="cls-8" x="454.95" y="372.59" width="108" height="30"/>
    <rect class="cls-8" x="509.81" y="467.47" width="108" height="30" transform="translate(1046.28 -81.35) rotate(90)"/>
    <rect class="cls-8" x="538.01" y="467.47" width="108" height="30" transform="translate(1074.47 -109.54) rotate(90)"/>
    <rect class="cls-8" x="566.28" y="467.47" width="108" height="30" transform="translate(1102.75 -137.82) rotate(90)"/>
    <rect class="cls-8" x="594.47" y="467.47" width="108" height="30" transform="translate(1130.94 -166.01) rotate(90)"/>
    <rect class="cls-8" x="622.75" y="467.47" width="108" height="30" transform="translate(1159.22 -194.28) rotate(90)"/>
    <rect class="cls-8" x="650.94" y="467.47" width="108" height="30" transform="translate(1187.41 -222.48) rotate(90)"/>
    <rect class="cls-8" x="679.22" y="467.47" width="108" height="30" transform="translate(1215.69 -250.75) rotate(90)"/>
    <rect class="cls-8" x="707.41" y="467.47" width="108" height="30" transform="translate(1243.88 -278.94) rotate(90)"/>
    <rect class="cls-8" x="735.69" y="467.47" width="108" height="30" transform="translate(1272.16 -307.22) rotate(90)"/>
    <rect class="cls-8" x="763.88" y="467.47" width="108" height="30" transform="translate(1300.35 -335.41) rotate(90)"/>
    <rect class="cls-8" x="792.16" y="467.47" width="108" height="30" transform="translate(1328.62 -363.69) rotate(90)"/>
    <rect class="cls-15" x="862.45" y="454.33" width="81" height="81"/>
    <rect class="cls-17" x="844.44" y="80.53" width="81" height="81"/>
    <rect class="cls-16" x="780.77" y="454.33" width="81" height="81"/>
    <rect class="cls-15" x="815.78" y="639.33" width="24.3" height="24.3"/>
    <rect class="cls-16" x="791.28" y="639.33" width="24.3" height="24.3"/>
    <rect class="cls-17" x="815.96" y="671.75" width="24.3" height="24.3"/>
    <text class="cls-24" transform="translate(847.77 654.74)"><tspan class="cls-18" x="0" y="0">W</tspan><tspan x="9.76" y="0">asher D</tspan><tspan class="cls-23" x="47.42" y="0">r</tspan><tspan class="cls-21" x="51.65" y="0">y</tspan><tspan x="57.18" y="0">er</tspan></text>
    <text class="cls-24" transform="translate(847.77 689.73)"><tspan class="cls-18" x="0" y="0">W</tspan><tspan x="9.76" y="0">ood </tspan><tspan class="cls-22" x="32.24" y="0">S</tspan><tspan class="cls-20" x="38.12" y="0">t</tspan><tspan class="cls-19" x="42.02" y="0">o</tspan><tspan class="cls-21" x="48.53" y="0">v</tspan><tspan x="54.18" y="0">e</tspan></text>
  </g>
</svg>