<?xml version="1.0" encoding="UTF-8"?>
<svg id="Layer_2" data-name="Layer 2" xmlns="http://www.w3.org/2000/svg" viewBox="0 0 1339.12 907.38">
  <defs>
    <style>
      .cls-1 {
        fill: #fff;
      }

      .cls-2 {
        opacity: .4;
      }

      .cls-3 {
        fill: none;
        stroke: #000;
        stroke-linecap: round;
        stroke-miterlimit: 10;
        stroke-width: 14.39px;
      }
    </style>
  </defs>
  <g id="Layer_1-2" data-name="Layer 1">
    <path d="M227.78,287.27c22.07-1.17,43.22-7.28,61.4-19.94,60.92-42.39,72.57-156.57-8.57-183.41C183.44,51.79,32.54,140.12,40.82,249.97c2.07,27.55,28.94,67.39,59.92,50.94,9.43-5.01,21.7-19.34,27-.33,6.19,22.23-18.43,45.61-37.5,52.74C34.77,374.04,3.58,316.34.37,269.74-10.8,108.08,235.62-30.62,369.72,54.15c23.87,15.09,43.11,37.09,51.55,64.39,23.27,75.35-39.66,146.49-104.49,174.57.03,2.6,13.71,2.86,16.38,3.38,48.85,9.45,86.36,50.65,98.22,97.7,40.06,158.98-131.41,326.42-284.99,324.45-185.75-2.38-170.62-220.55-35.49-294.35,9.24-5.05,20.83-8.35,29.38-13.76,1.9-1.2,4.56-2.34,5.3-4.58l26.5-182.89c.3-13.48.48-26.33-6.85-38.15-8.55-13.79-22.84-17.54-2.09-31.89,17.36-12.01,59.81-31.73,80.11-37.63,4.43-1.29,19.08-4.41,21.84.24,3.35,5.64-10.07,25.78-12.83,32.13-11.45,26.35-13.4,57.18-18.07,85.27l-6.4,54.25ZM231.95,540.09c-.69-.75-1.94-1.04-2.78-2.14-12.5-16.41,10.85-20.93,19.7-28.74,28.58-25.21-7.3-79.49-40.94-75.97-1.43,7.46-1.65,15.61-2.76,23.3-2.35,16.35-6.16,32.59-8.61,48.91-2.55,17.06-8.52,52.88-3.42,68.5,3.22,9.85,19.06,11.63,8.54,23.78l-104.68,45.46c-6.02-.24-9.13-7.86-9.49-13.06-.93-13.4,6.11-10.4,13.54-17.99,8-8.17,13.04-19.54,16.4-30.34,13.32-42.83,14.24-89.36,22.19-133.37.28-5.47-6.44-2.22-9.26-1.08-63.64,25.75-112.67,138.19-63.96,195.78,54.34,64.25,163.49,35.29,218.9-13.03,69.14-60.3,111.41-185.2,59.49-267.98-21.83-34.8-71.95-61.69-112.26-43.58-10.89,4.89-9.74,7.16-11.68,17.97-3.63,20.15-6.1,40.57-9.3,60.8l.92,1.85c7.57,2.04,15.07,1.86,22.95,4,47.41,12.92,81.11,62.47,66.51,111.45-7.93,26.62-48.33,49.19-69.98,25.47Z"/>
    <path d="M1298.94,322.58c3.28,4.11-2.77,10.13-4.68,14.1-13.82,28.7-29.65,100.57-30.98,132.57-.24,5.68-.42,20.38,6.23,22.5,11.12,3.54,18.53-13.68,24.57-12.06,3.31,1.52,2.7,4.91,2,7.98-6.76,29.81-56.81,58.38-75.45,25.09-4.26-7.61-3.52-13.01-4.1-21.07-.1-1.34.7-2.6-1.34-2.22-13.85,19.8-41.16,44.71-68.13,36.64-29.2-8.74-25.38-51.17-24.91-60.45,2.36-46.68,38.71-146.09,96.48-145.07,16.3.29,22.75,9.85,31.6,21.49,8.56-10.71,19.69-21.45,34.12-22.49,4.48-.32,11.6-.75,14.59,3ZM1219.88,350.37c-15.67,3.24-27.06,29.63-32.54,42.96-8.45,20.57-24.02,66.81-15.57,87.4,5.81,14.16,18.45,6.58,25.85-1.64,22.16-24.58,32.52-71.9,36.08-104.21,1.12-10.18,1.89-27.77-13.82-24.52Z"/>
    <path d="M1015.19,378.93l-.92-4.49c-2.17-2.2-3.26,5.73.44,8.17,3.26,2.15,9.22-4.43,11.11-6.98,3.3-4.46,5.32-10.45,8.39-14.98,13.28-19.59,47.02-41.98,70.27-26.5,15.66,10.42,12.81,27.09,10.23,43.17-5.5,34.14-19.64,68.65-23.9,102.82-.46,3.71-2.62,19.88,2.46,20.56,6.39.85,10.86-13.61,18.9-10.23,4.46,3.92-8.89,23.36-12.03,26.87-11.91,13.35-41.29,25.64-52.45,5.69-15.06-26.9,14.88-97.28,17.83-129.27,1.32-14.25-.19-34.21-19.07-20.21-22.24,16.49-34.4,72.21-39.08,98.67-1.67,9.43-5.53,29.62-2.72,38.14,2.61,7.91,12.04,13.21-2.76,16.59-9.31,2.13-34.75,4.39-43.72,2.91-8.23-1.35-3.82-12.65-2.77-18.84,5.03-29.61,13.09-59.28,19.07-88.77,3.94-19.42,15.81-62.6,4.07-79-1.37-1.91-2.96-2.93-4.99-4-3.17-1.66-16.42-2.85-9.58-9.27,30.83-28.91,60.5-9.28,64.51,11.86,1.96,10.3-.75,34.01-13.29,37.1Z"/>
    <path d="M783.72,369.94c-10.18.9-26.48,6.49-33.18,14.45-5.3,6.29-11.25,19.18-17.11,24.23-4.14,3.56-7.22,1.48-6.59-3.83,1.76-14.85,11.65-52.65,19.91-64.62,11.59-16.78,37.18-7.21,54.06-6.19,5.92.36,12.92.21,18.91.05,14.22-.38,32.42-4.51,45.84-3.66,5.14.33,9.95,1.81,10.36,7.68.56,8.06-15.63,29.3-20.89,36.66-26.72,37.4-57.63,71.71-85.42,108.25-11.56-.69-21.48,1.62-32.17,5.6-.59,3.93,6.63-.27,8.79-.66,19.36-3.54,37.59,7.94,57.03,4.9,23.45-3.67,37.71-17,50.33-35.95,1.79-2.69,5.05-11.09,7.46-11.49,2.12-.25,3.98.45,4.79,2.49-5.13,23.49-12.3,64.09-32.83,79.18-25.76,18.93-80.76-8.71-112.19-6.13-8.91.73-19.01,5.34-27.89,2.69-3.99-9.17-.1-12.56,5.39-18.89,14.6-16.84,28.34-34.36,43.58-50.78,24.13-25.99,50.23-50.27,69.95-80.14.83-1.25,2.2-2.21,1.98-3.86h-30.11Z"/>
    <path d="M570.15,464.39c-13.81-1.81-26.34-7.37-34.09-19.39-10.89-16.91,2.79-31.95,20.69-32.82v3.57c-10.47.73-19.64,10.05-13.87,20.63,9.16,16.78,34.08,14.71,50.26,13.52,40.35-2.96,70.24-27.57,84.49-64.7,2.38-6.21,11.11-30.27,1.63-33.05s-16.26,4.6-21.81,11.07c-17.4,20.29-27.32,48.19-33.48,73.91-3.57,5-42.46,8.39-50.14,8.29,8.48-40.71,35.97-86.98,71.44-109.65,34.06-21.77,75.79-15.59,71.46,32.8-3.1,34.7-47.08,72.53-77.32,85.35-4.03,1.71-15.17,4.42-17.43,5.94-4.82,3.26-1.78,17.98.49,22.73,12.49,26.18,47.78,5.17,61.47-9.31,4.45-4.71,13.49-20.79,18.93-21.55,9.82-1.36,2.58,13.67.54,18.55-11.68,27.83-41.14,55.56-71.14,61.88-43.63,9.19-64.44-29.61-62.15-67.79Z"/>
    <path d="M551.36,378.02c-.38-2.31.24-1.39,1.26-1.87,4.99-2.34,9.09-2.15,14.01.08-2.4-8.63-13.69-4.85-19.48-1.95-22.3,11.17-36.08,77.81-39.69,101.4-1.09,7.14-4.48,29.45-.2,34.71,2.12,2.61,12.8,4.15,8.95,9.95-3.88,5.85-25.82,5.18-32.61,6.08-10.25,1.36-26.83,4.21-35.67,9.27-2.95,1.69-4.33,4.76-7.56,4.99-5.24-1.56,4.69-13.1,5.97-15.56,9.5-18.22,13.79-45.62,17.39-66.19,6.39-36.55,9.63-98.52-22.12-124.4-3.26-2.65-7.29-2.57-8.54-7.71-1.35-5.56,5.24-4.67,8.95-4.37,6.93.55,13.29,3.83,19.97,5.19,13.14,2.66,28.25,1.35,41.05,4.8,4.66,1.25,7.07,4.27,8.34,8.73,2.95,10.37,1.03,37.81-1.78,48.61-1.2,4.61-5.77,18.01-4.56,17.93,5.44-11.13,18.97-34.23,19.31-34.82,10.87-19.04,29.35-63.57,58.64-49.39,21.99,10.65,12.73,48.22-3.33,59.94-13.05,9.52-17.16-1.3-28.31-5.4Z"/>
    <path d="M942.18,490.56c3.42,4.8-4.65,16.27-7.54,20.37-8.43,11.95-20.71,22.74-35.97,24.24-32.8,3.24-24.15-34.03-20.73-53.97,6.64-38.78,17.85-85.68,24.8-124.4.17-9.08-19-22.02-1.75-26.89,10.27-2.9,32.77-4.94,43.63-4.98,6.25-.02,8.67,3.17,7.42,9.27-7.69,37.11-17.26,82.87-24.67,120.03-2.33,11.72-7.36,30.54-5.61,41.9.24,1.57.8,3.25,2.34,4.01,6.33,1.99,11.56-13.52,18.08-9.59Z"/>
    <path d="M1179.12,645.83l31.29,71.21,30.3-71.21h47.64v13.47c-10.4-.76-13.72,1.77-14.48,11.99-1.71,22.92,1.29,48.01.12,71.17,1.12,8.31,6.72,9.87,14.36,9.22v12.51h-55.82v-12.52c3.63-.07,8.31.59,11.49-1.49,1.33-.87,3.9-5.57,3.9-6.68v-70.73l-38.16,91.47-11.77-.16-36.68-87.46v68.81c0,5.19,11.28,7.56,15.4,6.26v12.51h-47.15v-12.52c6.25.39,13.73-.84,14.35-8.26-1.17-23.47,1.86-48.89.13-72.13-.75-10.13-4.04-13.07-14.48-11.99v-13.47h49.56Z"/>
    <path d="M1025.4,645.83c16.95,1.33,33.09,8.26,37.54,25.98,4.9,19.51-4.6,31.96-21.63,39.93,8.1,10.32,14.88,25.49,24,34.68,4.07,4.1,7.58,5.37,13.49,5.28v12.5s-35.6,0-35.6,0l-29.07-48.87-10.39-.2v30.31c0,5.18,9.4,7.3,13.48,6.25v12.51h-55.82v-12.52c5.88.56,12.07-.77,13.42-7.27-1.61-24.77,2.33-52.58.1-76.98-.78-8.6-6.06-8.51-13.52-8.13v-13.47h63.99ZM1003.74,700.68h14.92c.57,0,5.71-1.59,6.65-2.01,12.16-5.51,14.23-28.2,2.82-35.36-1.2-.75-6.58-3.05-7.54-3.05h-16.84v40.42Z"/>
    <path d="M786.28,764.2v-12.51c5.94.32,11.34-.93,14.01-6.68l38.12-99.97,25.69-.03,37.47,99.66c3.04,5.33,7.58,7.29,13.66,7.03v12.5s-57.73,0-57.73,0v-12.52c9.46.45,14.03-.06,12.07-10.63-.31-1.65-4.13-12.56-4.85-13.43-.9-1.08-1.66-.86-2.84-1.01-10.84-1.35-24.39,1.16-35.55,0-3.5,10.92-12.88,27.67,7.12,25.08v12.52h-47.16ZM858.45,712.23l-13.95-39.47-13.95,39.47h27.91Z"/>
    <path d="M762.72,645.83v34.64h-13.47c.29-25.73-26.72-19.22-44.27-20.21v37.53h18.77c5.01,0,8.33-8.17,7.21-12.52h12.51v40.42l-11.61-.42c-.57-3.58-1.9-14.02-7.16-14.02h-19.73v34.16c0,5.19,11.28,7.57,15.4,6.25v12.52h-57.74v-12.52c4.86.31,12.45-.27,13.42-6.3,2.06-12.94.08-34.12.01-48.1-.05-10.32,1.57-21.23-.01-31.66-1.04-6.85-7.88-6.69-13.42-6.31v-13.47h100.08Z"/>
    <polyline class="cls-1" points="809.84 369.93 848.98 369.93 809.84 376.63 827.36 379.07 804.91 383.2"/>
    <g class="cls-2">
      <path d="M526.19,140.77l-17.97,13.03c-23.4,23.36-20.27,36.92-2.99,49.71,16.38,12.12,46.16,20,66.06,24.71,63.05,14.93,128.07,17.21,192.64,20.39,48.04,2.37,95.27,1.13,142.93-.08,56.04-1.42,114.33-3.66,169.61-15.49,22.39-4.79,63.93-13.91,80.74-28.91,3.18-2.84,5.93-7.94,8.02-9.74.83-.72,2.24-1.24,2.75-.16-5.42,11.12-13.64,17.75-24.55,23.08-39.23,19.17-95.34,27.42-138.7,32.98-70.9,9.09-140.07,7.81-211.17,8.15-45.26.22-88.93,1.61-133.88-2.66-45.03-4.28-137.87-15.17-172.57-44.04-19.94-16.59-16.67-31.42-.45-48.93,9.88-10.67,25.69-17.99,39.52-22.03Z"/>
      <path d="M481.38,138.21c.09-.1-21.68,20.7-21.2,20.22-10.66,14.45-23.36,32.95-16.67,51.43,16.12,40.21,113.96,56.85,153.98,63.32,57.46,8.6,115.63,10.16,173.66,12.33,38.73,1.56,77.34,1.29,116.08-.06,77.33-3.44,155.19-4.38,231.59-17.4,9.04-1.55,19.46-3.55,28.42-5.58,9.39-2.01,18.86-4.53,28.17-6.92,27.78-7.65,56.35-15.43,80.34-31.83,3.85-2.84,7.66-5.85,10.61-9.65,2.98-3.8,5.01-8.36,8.19-12.01-2.98,3.86-4.69,8.49-7.48,12.52-8.84,11.89-22.35,19.28-35.29,25.87-22.01,10.66-45.4,18-68.83,24.76-13.86,3.98-28.56,7.52-42.71,10.4-57.33,11.78-116.11,15.45-174.3,18.68-38.86,2.2-77.77,3.97-116.73,4.23-58.46-.34-116.86-2.97-175.13-8.05-38.91-3.68-77.72-9.81-115.47-20.15-18.9-5.2-37.69-11.16-55.51-19.54-11.23-5.33-22.18-11.71-31.1-20.48-5.46-5.35-10.26-11.5-12.75-18.91-6.56-20.12,7.29-39.34,19.56-54.06,0-.13,22.53-18.99,22.57-19.11h0Z"/>
      <path d="M1025.07,189.29c-.22-1.29,1.59-1.26,2.51-1.51,12.45-3.4,25.08-4.48,36.74-10.91,6.7-3.7,20.19-14.51,12.43-22.62-11.44-11.97-63.69-23.77-81.16-26.7-93.47-15.69-193.53-13.49-287.27-1.06-26.55,3.52-86.57,17.01-107.07,33.15-4.17,3.28-9.9,9.49-8.7,14.92,4.03,18.13,51.83,35.54,68.01,40.82,6.35,2.07,12.42,3.02,18.63,4.75.93.26,2.72.22,2.51,1.51l-29.1-3.69c-20.36-4.33-42.92-9.26-59.81-21.98-58.9-44.4,42.5-68.18,72.57-73.78,81.82-15.24,178.24-14.97,261.33-10.2,36.94,2.12,138.54,10.91,164.04,37.3,19.51,20.19-14.58,34.1-30.59,37.78-10.84,2.5-24.06,3.61-35.06,2.23Z"/>
      <path d="M1107.76,247.71c18.36-5.49,37.46-11.76,55.3-18.86,19.78-7.89,56.56-21.77,70.11-38.65,27.7-34.5-40.88-68.92-65.21-79.51-64.58-28.12-148.08-35.59-217.96-40.01-9.39-.59-18.91.16-28.3-.92l.88-1.35c66.53-1.73,134.72,4.64,199.4,19.95,45.22,10.7,90.13,24.93,122.9,59.56,10.55,11.15,10.25,34.35,1.68,46.69-14.47,20.82-51.09,34.8-74.98,41.86-13.25,3.92-48.3,13.62-60.67,13.1-1.35-.06-2.82-.31-3.15-1.86Z"/>
      <path d="M863.27,156.06l-.4,2.74-1.85.85c-35.14,2.08-109.26-1.12-134.47,17.44-3.49,2.57,3.45,6.5,5.78,7.87,26.61,15.69,79.3,16.11,109.85,14.26,9.46-.57,18.13-3.14,27.84-2.73,1.09.05,3.34-.68,3.13.89-27.16,4.09-54.72,6.72-82.28,5.44-15.43-.72-64.24-5.62-74.93-15.85-8.91-8.53.09-15.8,8.28-19.41,29.88-13.16,100.01-14.74,133.24-12.44,2,.14,3.84.78,5.81.95Z"/>
      <g>
        <g>
          <path d="M638.5,613.08c-23.22-18.1-104.02-21.27-133.41-18.47-14.89,1.41-30.77,4.25-43.59,12.12,1.29,2.03,2.05.99,3.58.92,9.9-.49,20.33-2.7,30.07-3.2,28.51-1.46,105.06,1.91,128.73,16.06,2.9,1.74,6.2,3.56,7.3,7.03-3.28,9.06-14.82,12.1-23.35,14.07-40.82,9.47-123.2,4.92-159.85-16.89-19.86-11.82-17.33-26.21,1.8-36.88,27.84-15.53,68.03-17.69,104.05-14.89,1.12-.51,2.23-1.04,3.35-1.53,3.53-1.58,6.98-2.9,10.85-3.44,1.98-.28,3.98-.41,5.97-.46-2.3-1.72-4.57-3.48-6.76-5.35-.89-.76-1.77-1.54-2.63-2.34-40.23-5.65-104.82-4.45-135.5,21.72-18.76,16-18.26,36.77.49,52.55,34.91,29.4,140.76,33.82,183.28,22.43,8.23-2.21,21.22-7.61,27.17-13.73,8.99-9.25,8.82-21.65-1.54-29.72Z"/>
          <path d="M631.15,677.49c3.72,3.73-.86,8.91-3.99,11.31-25.42,19.54-105.77,12.45-137.09,7.06-23.55-4.05-49.25-11.31-65.91-29.36-3.19-3.45-12.81-14.6-6.3-17.98,20.35,24.44,55.23,30.79,85.52,34.03,30.58,3.28,71.27,5.46,101.2-1.06,5.75-1.25,22.18-8.41,26.57-4.01Z"/>
          <path d="M612.25,717.94c5.99,6.38-6.93,12.8-11.46,14.59-36.35,14.34-136.92,2.25-159.84-33.38-1.23-1.91-4.66-8.45-.59-8.42.93,0,11.94,9.83,14.55,11.54,30.95,20.23,88.82,24.01,124.64,18.91,7.6-1.08,22.41-6.15,28.68-5.05.75.13,3.56,1.33,4.01,1.81Z"/>
          <path d="M462.38,733.89c1.54-1.51,12.6,6.74,14.95,7.96,23.28,12.06,62.01,17.1,88,15.44,8.81-.56,17.61-3.77,26.14-4.41,15.98-1.2,15.78,8.2,3.37,14.15-28.59,13.7-90.36-.79-116.89-16.81-5.81-3.51-14.14-9.33-15.57-16.32Z"/>
          <path d="M490.25,768.94c6.04,2.6,11.64,6.27,17.74,8.77,18.3,7.5,43.88,12.38,63.64,11.03,7.23-.49,28.87-7.78,31.51,1.74,2.07,7.44-13.84,10.36-18.98,10.79-26.35,2.21-67.78-5.14-87.64-23.79-1.06-.99-7.4-7.42-6.28-8.54Z"/>
          <path d="M577.44,849.81c5.63,27.19-24.05,47.94-46.52,55.48-3,1.01-5.9,2.41-9.21,2.02,5.04-4.85,12.16-7.32,17.9-11.31,15.07-10.46,29.88-29.77,22.37-49.16-2.83-7.31-9.6-9.29-14.2-15,4.63.07,8.6,3.11,13.09,4.43,7.19,2.11,14.02,2.94,21.51,2.74,3.44-.09,10.45-3.09,11.05,3.29.48,5.09-12.04,7.64-15.98,7.5Z"/>
          <path d="M518.55,801.3c.83,0,11.68,6.71,14.6,7.85,12.91,5.05,31.88,8.55,45.66,7.43,5.83-.47,15.67-5.97,18.83.89,4.61,10.02-21.43,10.23-26.99,9.9-15.95-.93-37.05-9.52-48.96-20.25-.52-.47-6.57-5.79-3.14-5.83Z"/>
        </g>
        <path d="M508.64,564c171.6,1.46,347.56,9.48,519.02,6.99,100.4-1.42,211.11-1.59,310.67-11,.4-.04.75.25.79.65.04.37-.21.7-.57.77-33.95,7.25-68.43,11.96-102.97,15.46-86.21,8.77-173.33,9.79-259.9,7.38-136.06-2.7-278.98-10.35-415.19-16.6-17.29-.8-34.58-1.52-51.87-2.2-.4-.01-.71-.35-.69-.75.01-.39.34-.69.73-.69h0Z"/>
        <path class="cls-3" d="M508.63,564.72c171.64,5.11,344.32,17.7,515.67,14.07"/>
      </g>
      <path d="M653.04,601.11c209.81,3.64,420.99,12.95,630.45-3.38-9.85,1.52-29.24,4.43-39.07,5.82-5.36.82-14.07,1.64-19.62,2.3-189.79,20.12-382.06,12.69-571.77-4.75h0Z"/>
      <path d="M653.04,804.49c210.03-8.54,420.35-9.72,630.45-3.38-210.03,8.6-420.35,9.66-630.45,3.38h0Z"/>
      <path d="M1134.22,302.5c23.56-6.44,47.47-12.22,70.55-20.12,29.72-10.12,58.02-23.58,83.91-41.56-41.02,39.62-98.93,56.13-154.46,61.68h0Z"/>
      <path d="M419.57,251.03c20.7,10.85,40.99,22.34,62.56,31.24,21.49,9.04,43.77,15.51,66.93,18.86-47.61.91-92.41-21.91-129.49-50.1h0Z"/>
      <path d="M829.66,48.13l20.38-13.62c-.44-1.71-2.45-.02-3.6.39-8.8,3.11-15.36,8.7-23.1,13.6-4.08-5.95,2.85-14.54,7.1-18.87,12.73-12.95,31.56-15.01,47.78-8.08-5.47,16.44-18.46,29.76-36.65,30.15-1.8.04-12.62-.86-11.92-3.57Z"/>
      <path d="M379.48,688.83c3.29,2.66,1.73,13.22,2.54,16.96.69,3.2,4.02,7.37,5.37,10.61,16.57,39.59-21.27,75.02-56.92,84.07.94-21.11-.83-42.51,8.24-62.19,7.2-15.63,20.39-26.43,35.37-34.38-3,20.34-7.51,37.13-17.58,55.05-.37.66-1.66,1.79-.34,2.32,14.37-17.09,20.05-40.47,19.16-62.57-.11-2.75-2.62-8.64.34-10.02.92-.43,3.06-.46,3.82.16Z"/>
      <path d="M614.71,86.07c-2.02,3.54-12.31,3.7-15.74,5.05-2.93,1.16-6.39,4.97-9.26,6.76-35.1,21.93-74.7-8.58-88.85-41.1,20.24-2.39,40.32-7.39,60.47-1.82,15.99,4.42,28.32,15.29,38.22,28.31-19.82.31-36.5-1.37-55.12-8.17-.69-.25-1.97-1.3-2.26.04,18.49,11.01,41.63,12.79,62.52,8.51,2.6-.53,7.81-3.84,9.59-1.23.55.81.91,2.84.45,3.66Z"/>
      <path d="M722.8,0c6.53,23.2,4.66,49.97-17.3,64.09l.42-21.72c-4.13,6.3-2.87,17.92-5.46,23.8-4.79,10.87-10.37-9.41-11.12-13.95-3.78-22.91,11.56-45.41,33.46-52.22Z"/>
      <path d="M244.05,768.16c8.52-22.9,29.02-43.62,55.23-35.56-5.88,7.69-13.73,13.57-21.74,18.82-.64.42-2.3.83-1.37,1.9,8.89-4.56,18.84-9.45,25.05-17.6,2.53-3.32,4.33-10.51,8.69-7.25,1.74,2.34-3.3,7.48-3.81,9.69-.4,1.72.32,5.22-.23,7.81-5.43,25.59-41.33,28.98-61.83,22.18Z"/>
      <path d="M1197.21,843.43c2.25-3.4,12.53-2.88,16.04-4,3-.96,6.71-4.53,9.69-6.13,36.48-19.55,73.97,13.51,85.93,46.89-20.35,1.04-40.72,4.7-60.45-2.19-15.67-5.47-27.24-17.14-36.25-30.78,19.79,1.01,36.33,3.79,54.46,11.81.67.3,1.87,1.43,2.26.11-17.72-12.22-40.69-15.52-61.82-12.63-2.63.36-8.05,3.31-9.65.6-.5-.85-.72-2.89-.2-3.68Z"/>
    </g>
    <g>
      <path d="M927.28,225.55c-6.01-1.94-28.94-5.1-28.94-5.1,0,0-1.76-3.18-1.22-3.59,12.12.83,54.63,3.17,55.47,1.53,0,0-57.16-4.7-57.75-9.23-2.32-17.89,15.19-28.99,31.13-28.53,5.37.15,12.92,3.35,17.19,1.76,1.05-.39,9.66-5.96,10.62-6.82,2.72-2.43,4.33-5.74,8.09-8.12,9.1-5.76,14.21-2.88,23.27-3.67,3.21-.28,6.4-2.99,9.96-.96,2.67,2.15-3.95,10.59-6.08,12.27-8.26,6.48-25.94,5.84-35.17,9.82.81,1.48,8.21.22,9.57.44,6.76,1.11,13.28.81,17.11,7.62,4.6,8.17-1.85,16.53-6.05,23.9-6.46,11.31-7.91,14.62-21.2,15.38-10.46.6-24.75.07-35.35-.49-2.32-.12-11.41-.58-12.66-1.46l-1.17-4.35c2.21,1.02,23.18.1,23.2-.38Z"/>
      <path d="M924.79,141.3c5.03-1.08,5.22,5.79,7.97,8.68,2.23,2.35,5.2,2.29,7.06,4,2.19,2,4.81,10.84,4.37,13.8-.16,1.05-3.76,8.72-4.32,9.04-4.88,2.77-5.28-4.88-6.84-7.11-4.12-5.92-13.4-6.58-13.67-16.23-.09-3.11,2.01-11.45,5.43-12.18Z"/>
    </g>
  </g>
</svg>